<svg id="visual" viewBox="0 0 1440 900" width="1440" height="900" xmlns="http://www.w3.org/2000/svg" xmlns:xlink="http://www.w3.org/1999/xlink" version="1.1"><rect x="0" y="0" width="1440" height="900" fill="#001122"></rect><path d="M0 684L30 710.3C60 736.7 120 789.3 180 810.2C240 831 300 820 360 803.5C420 787 480 765 540 742.7C600 720.3 660 697.7 720 699C780 700.3 840 725.7 900 744.5C960 763.3 1020 775.7 1080 791.5C1140 807.3 1200 826.7 1260 835.7C1320 844.7 1380 843.3 1410 842.7L1440 842L1440 901L1410 901C1380 901 1320 901 1260 901C1200 901 1140 901 1080 901C1020 901 960 901 900 901C840 901 780 901 720 901C660 901 600 901 540 901C480 901 420 901 360 901C300 901 240 901 180 901C120 901 60 901 30 901L0 901Z" fill="#A8A89E" stroke-linecap="round" stroke-linejoin="miter"></path></svg>